HIERARCHY
ROOT Hips
{
	OFFSET -14.64140 90.27770 -84.91600
	CHANNELS 6 Xposition Yposition Zposition Zrotation Xrotation Yrotation
	JOINT Spine
	{
		OFFSET 0.00000 13.20850 -1.60436
		CHANNELS 3 Zrotation Xrotation Yrotation
		JOINT Spine1
		{
			OFFSET 0.00000 8.61716 0.00000
			CHANNELS 3 Zrotation Xrotation Yrotation
			JOINT Spine2
			{
				OFFSET 0.00000 8.61717 0.00000
				CHANNELS 3 Zrotation Xrotation Yrotation
				JOINT Spine3
				{
					OFFSET 0.00000 8.61717 0.00000
					CHANNELS 3 Zrotation Xrotation Yrotation
					JOINT Neck
					{
						OFFSET 0.00000 11.07920 1.10792
						CHANNELS 3 Zrotation Xrotation Yrotation
						JOINT Neck1
						{
							OFFSET 0.00000 7.08032 0.00000
							CHANNELS 3 Zrotation Xrotation Yrotation
							JOINT Head
							{
								OFFSET 0.00000 7.08031 0.00000
								CHANNELS 3 Zrotation Xrotation Yrotation
								End site
								{
									OFFSET 0.00000 0.00000 0.00000
								}
							}
						}
					}
					JOINT RightShoulder
					{
						OFFSET -0.01000 7.91373 5.19711
						CHANNELS 3 Zrotation Xrotation Yrotation
						JOINT RightArm
						{
							OFFSET -18.41580 0.00000 0.00000
							CHANNELS 3 Zrotation Xrotation Yrotation
							JOINT RightForeArm
							{
								OFFSET -29.11090 0.00000 0.00000
								CHANNELS 3 Zrotation Xrotation Yrotation
								JOINT RightHand
								{
									OFFSET -24.65040 0.00000 0.00000
									CHANNELS 3 Zrotation Xrotation Yrotation
									JOINT RightHandThumb1
									{
										OFFSET -5.35114 -0.85590 3.97906
										CHANNELS 3 Zrotation Xrotation Yrotation
										JOINT RightHandThumb2
										{
											OFFSET -4.52789 0.00000 0.00000
											CHANNELS 3 Zrotation Xrotation Yrotation
											JOINT RightHandThumb3
											{
												OFFSET -2.46976 0.00000 0.00000
												CHANNELS 3 Zrotation Xrotation Yrotation
												End site
												{
													OFFSET 0.00000 0.00000 0.00000
												}
											}
										}
									}
									JOINT RightHandIndex1
									{
										OFFSET -14.26970 0.00000 2.88139
										CHANNELS 3 Zrotation Xrotation Yrotation
										JOINT RightHandIndex2
										{
											OFFSET -5.48836 0.00000 0.00000
											CHANNELS 3 Zrotation Xrotation Yrotation
											JOINT RightHandIndex3
											{
												OFFSET -3.01859 0.00000 0.00000
												CHANNELS 3 Zrotation Xrotation Yrotation
												End site
												{
													OFFSET 0.00000 0.00000 0.00000
												}
											}
										}
									}
									JOINT RightHandMiddle1
									{
										OFFSET -14.26970 0.00000 -0.09147
										CHANNELS 3 Zrotation Xrotation Yrotation
										JOINT RightHandMiddle2
										{
											OFFSET -6.17441 0.00000 0.00000
											CHANNELS 3 Zrotation Xrotation Yrotation
											JOINT RightHandMiddle3
											{
												OFFSET -3.56743 0.00000 0.00000
												CHANNELS 3 Zrotation Xrotation Yrotation
												End site
												{
													OFFSET 0.00000 0.00000 0.00000
												}
											}
										}
									}
									JOINT RightHandRing1
									{
										OFFSET -12.69180 0.00000 -3.06433
										CHANNELS 3 Zrotation Xrotation Yrotation
										JOINT RightHandRing2
										{
											OFFSET -5.62556 0.00000 0.00000
											CHANNELS 3 Zrotation Xrotation Yrotation
											JOINT RightHandRing3
											{
												OFFSET -3.56744 0.00000 0.00000
												CHANNELS 3 Zrotation Xrotation Yrotation
												End site
												{
													OFFSET 0.00000 0.00000 0.00000
												}
											}
										}
									}
									JOINT RightHandPinky1
									{
										OFFSET -11.11390 0.00000 -6.03719
										CHANNELS 3 Zrotation Xrotation Yrotation
										JOINT RightHandPinky2
										{
											OFFSET -4.52789 0.00000 0.00000
											CHANNELS 3 Zrotation Xrotation Yrotation
											JOINT RightHandPinky3
											{
												OFFSET -2.46976 0.00000 0.00000
												CHANNELS 3 Zrotation Xrotation Yrotation
												End site
												{
													OFFSET 0.00000 0.00000 0.00000
												}
											}
										}
									}
								}
							}
						}
					}
					JOINT LeftShoulder
					{
						OFFSET 0.01000 7.91373 5.19711
						CHANNELS 3 Zrotation Xrotation Yrotation
						JOINT LeftArm
						{
							OFFSET 18.41580 0.00000 0.00000
							CHANNELS 3 Zrotation Xrotation Yrotation
							JOINT LeftForeArm
							{
								OFFSET 29.11090 0.00000 0.00000
								CHANNELS 3 Zrotation Xrotation Yrotation
								JOINT LeftHand
								{
									OFFSET 24.65040 0.00000 0.00000
									CHANNELS 3 Zrotation Xrotation Yrotation
									JOINT LeftHandThumb1
									{
										OFFSET 5.35114 -0.85590 3.97906
										CHANNELS 3 Zrotation Xrotation Yrotation
										JOINT LeftHandThumb2
										{
											OFFSET 4.52789 0.00000 0.00000
											CHANNELS 3 Zrotation Xrotation Yrotation
											JOINT LeftHandThumb3
											{
												OFFSET 2.46977 0.00000 0.00000
												CHANNELS 3 Zrotation Xrotation Yrotation
												End site
												{
													OFFSET 0.00000 0.00000 0.00000
												}
											}
										}
									}
									JOINT LeftHandIndex1
									{
										OFFSET 14.26970 0.00000 2.88139
										CHANNELS 3 Zrotation Xrotation Yrotation
										JOINT LeftHandIndex2
										{
											OFFSET 5.48836 0.00000 0.00000
											CHANNELS 3 Zrotation Xrotation Yrotation
											JOINT LeftHandIndex3
											{
												OFFSET 3.01859 0.00000 0.00000
												CHANNELS 3 Zrotation Xrotation Yrotation
												End site
												{
													OFFSET 0.00000 0.00000 0.00000
												}
											}
										}
									}
									JOINT LeftHandMiddle1
									{
										OFFSET 14.26970 0.00000 -0.09147
										CHANNELS 3 Zrotation Xrotation Yrotation
										JOINT LeftHandMiddle2
										{
											OFFSET 6.17440 0.00000 0.00000
											CHANNELS 3 Zrotation Xrotation Yrotation
											JOINT LeftHandMiddle3
											{
												OFFSET 3.56744 0.00000 0.00000
												CHANNELS 3 Zrotation Xrotation Yrotation
												End site
												{
													OFFSET 0.00000 0.00000 0.00000
												}
											}
										}
									}
									JOINT LeftHandRing1
									{
										OFFSET 12.69180 0.00000 -3.06433
										CHANNELS 3 Zrotation Xrotation Yrotation
										JOINT LeftHandRing2
										{
											OFFSET 5.62556 0.00000 0.00000
											CHANNELS 3 Zrotation Xrotation Yrotation
											JOINT LeftHandRing3
											{
												OFFSET 3.56744 0.00000 0.00000
												CHANNELS 3 Zrotation Xrotation Yrotation
												End site
												{
													OFFSET 0.00000 0.00000 0.00000
												}
											}
										}
									}
									JOINT LeftHandPinky1
									{
										OFFSET 11.11390 0.00000 -6.03719
										CHANNELS 3 Zrotation Xrotation Yrotation
										JOINT LeftHandPinky2
										{
											OFFSET 4.52789 0.00000 0.00000
											CHANNELS 3 Zrotation Xrotation Yrotation
											JOINT LeftHandPinky3
											{
												OFFSET 2.46976 0.00000 0.00000
												CHANNELS 3 Zrotation Xrotation Yrotation
												End site
												{
													OFFSET 0.00000 0.00000 0.00000
												}
											}
										}
									}
								}
							}
						}
					}
					JOINT pCube4
					{
						OFFSET 0.00000 10.91090 1.10792
						CHANNELS 3 Zrotation Xrotation Yrotation
						End site
						{
							OFFSET 0.00000 0.00000 0.00000
						}
					}
				}
			}
		}
	}
	JOINT RightUpLeg
	{
		OFFSET -9.98441 0.00000 0.00000
		CHANNELS 3 Zrotation Xrotation Yrotation
		JOINT RightLeg
		{
			OFFSET 0.00000 -42.11790 0.00000
			CHANNELS 3 Zrotation Xrotation Yrotation
			JOINT RightFoot
			{
				OFFSET 0.00000 -45.00020 -0.00001
				CHANNELS 3 Zrotation Xrotation Yrotation
				JOINT RightForeFoot
				{
					OFFSET 0.00000 -3.74820 0.00000
					CHANNELS 3 Zrotation Xrotation Yrotation
					JOINT RightToeBase
					{
						OFFSET 0.00000 0.06325 14.43120
						CHANNELS 3 Zrotation Xrotation Yrotation
						End site
						{
							OFFSET 0.00000 0.00000 0.00000
						}
					}
				}
			}
		}
	}
	JOINT LeftUpLeg
	{
		OFFSET 9.98441 0.00000 0.00000
		CHANNELS 3 Zrotation Xrotation Yrotation
		JOINT LeftLeg
		{
			OFFSET 0.00000 -42.11800 0.00000
			CHANNELS 3 Zrotation Xrotation Yrotation
			JOINT LeftFoot
			{
				OFFSET 0.00000 -45.00070 0.00000
				CHANNELS 3 Zrotation Xrotation Yrotation
				JOINT LeftForeFoot
				{
					OFFSET 0.00000 -3.74824 0.00000
					CHANNELS 3 Zrotation Xrotation Yrotation
					JOINT LeftToeBase
					{
						OFFSET 0.00000 0.06325 14.43110
						CHANNELS 3 Zrotation Xrotation Yrotation
						End site
						{
							OFFSET 0.00000 0.00000 0.00000
						}
					}
				}
			}
		}
	}
}
MOTION
Frames: 4
Frame Time: 0.050000
0.03707491650708504 -0.02672751189348903 0.04756682951662384 0.0011436382711191915 -0.0012666146935290431 -0.03497837910851099 0.24278040521129268 3.619460455359628 -1.3808290667538 -1.04297487835303 3.5172213532670797 0.4062615021393261 -1.052388202741771 -1.1047495844308837 0.8695909004730602 -1.396622467315153 -0.39317805050581733 -0.3889236530567697 -0.5590628318808398 11.5142539367541 1.3335393685430363 0.012197815436445363 -0.3741574542275446 1.443548480875419 -0.20235351205819252 -15.717572105066806 0.10543254186137829 -9.019057588932204 3.354001142176029 -14.576965514856518 62.75215427763274 -19.633633356251 27.585599283632405 20.257009251364334 -4.662011594472465 80.91924377930098 16.347897747442723 -0.5298330649060484 -4.71957960949638 4.4885412221286245 -0.12719126517723087 -1.5591495184589765 -0.04114170449357985 0.040669251450489385 -56.22179371397178 -0.016487953230455557 0.021835138259954215 -56.21185023723471 -38.76790575466958 0.034918875096950054 -0.02156365105844649 -0.022368786730401085 -0.01545193687927611 0.028297853032678275 -0.041612658990601126 0.013889136491107104 0.03327532520137667 -36.69859664947593 -0.04550475899767583 -0.005130525293217121 0.030458608866968512 -0.049413242266202397 0.042372296486410575 -0.04341337451292597 -0.0059028857536606175 0.04598086339220819 -19.755379990139787 -0.03757536405743013 -0.026935593371449948 0.010775008319135273 0.014008192770955432 -0.030834438511338814 0.02591095449429137 -0.021270600813239917 0.019096458398237388 24.066092497939117 -0.0381149814948756 0.016311549275287905 28.900955123224342 -0.044600217852032956 -0.02419407635485143 28.84535010313749 -0.021188901989616416 0.005960721270638628 7.453743436614813 1.9120649997588086 13.129625393008595 -62.373006438305424 16.369763875770946 -18.319605132278372 7.969880233932447 -8.47194967068392 -50.53003179314022 -17.645914156337632 -0.555020862201213 3.5009340506371425 -0.5067061337093068 0.06126630030678345 -8.133914928038358 0.03676067971212556 0.01027066544712868 44.56688162348354 -0.016123502902298113 0.0016130463829957618 44.56230202046016 12.419599842274264 0.012082204736034559 -0.006999007116890078 0.002167378088362113 -0.03512138859613246 -0.039170417616772896 0.03256336361712842 0.040501746009717454 0.01340666861455688 11.113347805715605 0.030738986064942395 0.02512859658092371 -0.027707335915056905 0.03894257441617462 -0.01861536486367504 -0.016716140776207356 0.04656576985019053 0.025130786432016453 4.793618756205451 0.035182666545402114 0.04983512690456614 0.019884967249954134 0.011868258710112886 -0.005725828949953839 0.034799039765868206 -0.043256253446133285 0.02011223742515764 -5.575060668012483 0.03625088953565427 0.04527706222867284 -6.735403377586345 -0.003805634280869221 -0.010981590318989246 -6.76989336012607 0.012261624220210201 0.04421131489176306 0.018882995737081455 -0.033176472993783686 0.011432776283720306 8.05176258294698 3.5185078604168827 -19.169601171055387 0.04596921512846034 10.399836392308416 0.01385295688862179 -5.594211021815197 -15.636739541194776 3.22499052807847 -0.006130947709228804 -0.006146512907731316 0.03471228875713242 -0.044119545390977184 4.715939946972614 -0.0069922969900067045 12.484833241525529 -8.200844809256914 6.914259458206081 -0.006533044119722228 46.41609916646259 0.010773866553097075 -4.319168716846523 -14.699378721149671 -3.7934618572090906 -0.029666880131148293 -0.0048505406041065196 -0.04583626582849371 0.028869824330583185 -10.7444431907203 0.04895901152094977 
-0.032994908164429085 0.023119711708458904 -0.03854712955354473 0.0015041408861868368 -0.042059681280466166 0.013059989400488298 0.41675636388173076 3.5775053331961377 -1.3961643955044762 -1.0430578918338673 3.4989336326758784 0.43845471765070354 -1.0720843365478194 -0.9756663741723091 0.7699285376649535 -1.186382979527283 -0.3342535635053495 -0.44899649136667796 -0.3009908410514223 11.288101762165953 0.5226672977139215 0.0070407294259619835 -0.5366823967336976 -0.13233948108587132 0.032563822405266105 -15.971709772015144 -0.025743710053928982 -9.361803872964297 3.417083810832181 -14.894326260021293 63.29251665871627 -21.570059918381133 27.342161136264792 19.3060955065872 -4.012178817149184 80.6533637275077 15.306690806345067 -0.5447562903069402 -4.351789224707403 4.511327071580323 -0.1405543021864525 -1.6091555986093178 0.008261904141915294 0.0166335006802426 -56.24398044993436 0.0032352425250184377 0.024427809887285865 -56.1985599167718 -38.74282155750816 0.027374347766910005 0.034042493961238485 -0.023574998794915415 -0.03767909398307613 -0.002821179331158855 -0.0393380426499265 -0.03607004756794761 0.006725842283572992 -36.68057653155415 0.0016586843272587619 -0.015417911394035954 0.043344215101487796 0.005547825618506713 -0.005825509497258279 -0.01849245455780264 0.03465878646238862 0.036689130705991016 -19.772785090086355 -0.0185637097619073 -0.00121877479759406 0.042618599199260684 -0.033764689897341195 0.023293779112401516 -0.015496489837664136 0.03774184195423061 -0.022881640873831852 24.043380268984034 -0.016733675532543586 0.018892738787895963 28.84408267987122 -0.0005785282058140669 -0.02978485837551084 28.843588469016744 -0.013301486038991048 0.025135439160391602 7.144351628852668 1.8613949809797217 13.016685867907272 -62.82980755129817 16.894666885443023 -17.316127713990376 6.872124819312823 -7.580777023778746 -50.442935038392356 -17.295456555037553 -1.1525437163482486 3.7117251257087345 -0.43761163416357385 0.03134187251436388 -8.151501241983741 0.01677541762869875 0.0333152780076608 44.61373529152374 -0.004412123242991812 -0.04095423860034861 44.52423406265891 12.492526321654012 -0.04665627206480251 0.02362517241251268 -0.013501668172527705 0.020635748753411762 0.04657640861161724 0.03068421563756135 0.0033554734805522984 -0.012100658090308056 11.130118306576376 -0.01917403069717037 -0.03856744834309291 -0.018718766186898064 -0.04706685776276225 0.009254598068142269 0.0004494415577354584 0.025737830153291823 -0.04655473409931499 4.817699117396498 -0.04151880734515219 0.04741403444819162 0.020635889421471324 -0.019359526743845598 -0.0400002364308149 -0.04691661875408354 -0.03285795066744915 -0.028593422217375035 -5.635862462440102 0.026163146058944247 0.046794176027314345 -6.734825523886143 -0.01799050905598415 -0.036627242636428345 -6.7411669629087765 0.02802655451977297 -0.011812862186965872 0.035329129086558476 -0.0418269533646725 0.00021857632849068247 8.017728335486044 3.4900572823186633 -19.19585644167498 -0.02756502240647719 10.426260992819268 0.015065598362779799 -5.571221589770561 -15.677791374195928 3.157867824470964 0.007324864978748153 0.009943159178762099 -0.035223132000855834 0.004263785858923295 4.658817905740004 -0.02716032643672402 12.506936387740563 -8.229555363632532 6.85569671139705 -0.044447505939506256 46.41566452468118 -0.03320869523975993 -4.29067855919599 -14.781777717863768 -3.854383735738757 -0.026525706102090096 0.015567689456729962 0.01230774830752064 -0.042210830424930665 -10.77908916099619 -0.01643794262232341 
0.027487270372564446 -0.030525931585220975 -0.049798751048386276 -0.048654194920818926 -0.0243502908745932 -0.03858241982104434 0.5375292562045286 3.7104735218483222 -1.4459681551846384 -1.0526538876845377 3.4842984107998274 0.48555232912920754 -1.026040875917393 -0.8513617281662572 0.56547216046416 -0.9389842442332657 -0.34540118335973047 -0.4317603423830387 -0.07577287502133398 11.09296699248936 0.09187196151277982 0.06408682012557461 -0.6761380888585086 -1.0494942481052763 0.21263033628079986 -16.233492014655248 -0.08937991374131236 -9.087177250772662 3.340362946688717 -15.218820656817615 64.40552294154129 -22.3141594160025 25.108494415860356 19.53008796028543 -3.0174444239843754 80.0894217250993 14.508098931631478 -0.4501823512253843 -4.157989878302387 4.5379857992659876 -0.12998562257020707 -1.626165323579314 0.011071579364571392 -0.004009725254583396 -56.2215426522538 -0.00251450322785116 0.010717545484875433 -56.24323504405951 -38.79644365951528 -0.0038450993959555325 0.033075238438066194 -0.03097544701035461 0.030028915996620328 0.01642445750331996 0.013398292433190696 -0.0041632988235899065 -0.032682783792796086 -36.68136743514182 -0.010616063035786546 -0.0013653076929273321 0.023661703991269722 -0.035353032386416045 -0.04230584001222048 0.0007977750566593442 0.02399614442517575 0.018146239441422282 -19.781502273358793 -0.04284894025353804 -0.016963171663930326 -0.0390228804957117 0.004673488047805433 -0.03995028914120517 -0.03383350840771109 -0.021089027509590238 0.02881659219207657 24.01455816461645 -0.03615802208749596 0.01156996154516199 28.91095102244335 0.016849670075878988 0.0472540744956255 28.84648810492271 0.03046516952383669 -0.01936058627722579 6.796529546683903 1.8052624901506085 12.998478973387426 -63.458940234662265 17.763534594333205 -16.351409737975942 5.462807356763321 -6.469751649677609 -50.9703022782189 -16.791732572079752 -1.6845552608035914 3.9516648345602636 -0.46456543895554103 0.07456913834856893 -8.132624941400215 -0.012144487240322991 -0.03531855049729548 44.56624054266475 0.03409903860330804 0.013710181623902739 44.60976682833724 12.460241607709502 -0.034846518358189804 -0.04215578458772457 0.016356834977163805 -0.01406620946331503 0.01918850608008437 -0.032196376722746584 0.004188186587051662 -0.003565953063999452 11.129621487224133 -0.0042562371379825875 0.045083670963795494 0.003293228127375668 0.00010674433016037734 0.04729806097275244 -0.024774392067956154 0.013145940564323392 0.01507103747761277 4.8078775165653775 -0.020706566450564793 -0.0007474916992227906 -0.046875894202721514 -0.003442276934023652 0.005816808197723126 -0.008504626033043352 -0.02686420419040581 0.024305194248432742 -5.593261928107621 0.0007284322136556914 0.027658648233269047 -6.748599695260351 -0.011307230230455453 -0.00802779593050694 -6.700155207175349 -0.008654330721264425 -0.02063352617225025 0.029506152679148575 -0.029019550986608918 -0.02530598193063716 8.026932424625276 3.497455089541491 -19.196729198994685 -0.03561264834043658 10.354178944513906 0.0024430237325452926 -5.574247140014067 -15.633220691564002 3.1754335634088533 -0.03003821810335185 -0.018708793155259786 0.02900733757608791 -0.029468622278094502 4.7163580427380545 0.04466777764836378 12.440146900831103 -8.260014498382201 6.85844753727163 0.037357165202926215 46.377564146148394 -0.017471815992867987 -4.361068773676796 -14.775386544166517 -3.87682074218053 0.047131300862485875 -0.005064723330215327 0.011715027853697553 0.024743351330226 -10.756343751866186 -0.004832240699572455 
0.01329260152102556 -0.009810058823521485 0.006456426759803459 0.019848201375877266 -0.046646707591767346 0.00764033380414899 0.6067833971637515 4.104428655312805 -1.4406803181800762 -0.9927102207892937 3.621106849039822 0.41949883671246224 -1.0255458515247948 -0.7288839224078216 0.3027841759241166 -0.683469548736333 -0.22371696818322823 -0.4792749635908541 -0.07902816904529067 10.849128745373065 -0.2743145827418674 0.08941552003633918 -0.908373011947361 -1.6589393653404239 0.32231874991808424 -16.65174820130527 -0.1757863570117818 -8.619164520006686 3.185340154537083 -15.552457317296774 65.63285235118704 -22.749956463985242 22.059881139319216 20.419415236716013 -2.1153997494591024 78.92384735645227 13.811645564130961 -0.433472313380715 -3.9271344978056315 4.514576781219891 -0.17192127058256096 -1.5881793233581043 -0.01364704091726087 0.027067130953377733 -56.20458358850265 -0.04330667033552392 -0.010058509799054746 -56.239770614154274 -38.74597981946616 -0.005994547727686365 0.03558055271316515 -0.024108240273476477 0.04203325053771004 -0.0010199221027630896 0.01454240273331019 0.014114301483352876 0.006312162610964834 -36.683564398143666 0.017210418452760164 -0.020013806432153114 0.009719882366749848 0.026405204900004812 -0.013762012108493548 -0.026861068437995215 -0.013085407703511921 0.03443678028405235 -19.761659290724907 0.029929203726140715 0.016743659511892352 -0.00833014183826383 -0.04362819399257626 0.025716348912797782 -0.02728554616995318 -0.021606586262054202 0.04675608914776996 24.008181174002367 0.04900459545128615 -0.00039729803374015014 28.907592339115833 -0.028082028606897017 0.028633425423616483 28.897530444582856 0.005496176367630192 -0.021692116611171024 6.269734580547417 1.714965120516496 12.954031942955405 -63.78057281913823 18.754372504887797 -15.465419428851227 3.6538224554747853 -5.190246833387134 -52.415795772324984 -16.01923872158648 -2.038190651219174 4.045578612507723 -0.49964717239672485 0.061721981073226774 -8.075864694428871 -0.0439463453564293 0.03263339986870487 44.52984925563374 -0.033291864469218224 0.00890308725810291 44.608956851135694 12.470482988023301 0.0073807058340299905 -0.009759371268871261 0.027988323091312283 -0.03943062994249737 0.022363885127153472 0.016363733536920506 -0.023659722229586223 0.02851459217510208 11.140231370144308 -0.04451876733350264 -0.0067792387710323854 -0.03577383242188118 -0.033198330728619684 0.011091189651932972 -0.046487389771942174 -0.007523004675192778 -0.04831219982894448 4.813509342336939 0.014589019051124908 0.022228594680704324 -0.020175319920844346 -0.0431330807271316 0.01182440712137989 -0.037899806641921746 -0.012705681366500516 -0.041554521031863814 -5.627959264292509 0.03157328126957976 -0.010565665274071843 -6.703687829883161 0.007605512371569982 0.014811131249003991 -6.712656157072531 -0.009462412566329861 -0.0247772261044669 -0.031157607912580782 0.031117736617026857 -0.03523711462203045 8.088847470817297 3.5192891860235824 -19.210496989410153 -0.018768143074413077 10.440283980948141 -0.022728617611881417 -5.583493448008257 -15.6525894835761 3.196596686819891 -0.005145542604864247 0.007380019919580598 0.004059429175154307 -0.0047273942767257155 4.6878568542344246 0.0021130705722802426 12.498797799282146 -8.287840030113536 6.884456311089263 0.0023804835679701935 46.37688262493051 -0.011419383502918113 -4.316588356746119 -14.764459158483493 -3.833165589391083 0.0435550134253085 -0.0006628032386569348 -0.018918024488854657 -0.01129933932630735 -10.776197323538263 0.026288516553059218 
